<svg xmlns="http://www.w3.org/2000/svg" xmlns:xlink="http://www.w3.org/1999/xlink" viewBox="0 0 180 180" version="1.1">
<style>
    .st0 {
        fill: red;
    }
</style>
<g fill-rule="evenodd">
<path class="st0" d="
    M84.1 10.8c-.9.1-2.1.2-3.4.5-17 3-29.5 12.1-36.6 28-5 11.1-5.8 22.6-3 34.4.3 1.3.9 1.9 2.2 2.1 2.3.3 4.6.7 6.8 1.3 6.7 1.8 13.2 4 18.1 9.4 6.3 6.9 9.8 14.7 9.1 24.2-.3 5.3-3.4 9.2-8.6 10.5-2 .5-4 .6-6.2.9-.9 11.1.5 21.6 7.7 30.9 9.2 11.7 20.9 17.3 35.7 15.9 12.5-1.2 21.9-7.4 27.8-18.6 4-7.4 5-15.4 4.5-23.6-.9-14.6-7-26.5-18.8-35.2-4.9-3.7-9.8-7.3-14.7-11-3.8-2.9-6.1-6.7-7-11.4-.3-1.2-.4-2.4-.6-3.8-.3.2-.5.4-.7.5-5.5 4.1-14 4-19-.7-8-7.5-10.9-17.1-9.8-27.8.6-5.8 3.3-11 6.9-15.6 3-3.8 6.4-7.3 9.6-10.9Z
    M105 158c.8.6 1.6.6 2.4 0l.8-.6c.8-.6 1.2-1 2.2-1.8 1.6-1.6 4-3.8 6.4-6.4 2.2-2.6 4.6-5.4 6.4-8.6 1.8-3.2 3-6.6 3-10.2 0-5.2-2-10.4-5.8-14.2-3.8-3.6-8.8-5.8-14.2-5.8-5.2 0-10.4 2.2-14.2 5.8-3.6 3.8-5.8 9-5.8 14.2 0 3.6 1.4 7 3 10.2 1.8 3.2 4.2 6 6.6 8.6 2.2 2.6 4.6 4.8 6.2 6.4 1 .8 1.4 1.2 2.2 1.8z
    m7.2-27.6c0 3.4-2.6 6-6 6s-6-2.6-6-6 2.8-6 6-6 6 2.8 6 6Z
"></path>
<path class="st0" d="
    M116.4 52.2c-.1 0-.2-.1-.3-.3-.7 1-1.5 2-2.1 3.1-1.9 3.4-2.5 7.2-2.9 11-.8 8.2 2.3 14.5 9 19.1 2.7 1.9 5.8 2.6 9.1 1.7 3.2-.9 5.1-3.1 5.9-6.3.8-3.5-.4-6.4-2.9-8.8-1.7-1.7-3.9-2.6-6.3-3.2-5.7-1.5-8.4-4.7-9.1-10.6-.2-1.9-.3-3.8-.4-5.7Z
"></path>
</g>
</svg>
